<svg width="17" height="11" viewBox="0 0 17 11" fill="none" xmlns="http://www.w3.org/2000/svg">
<path d="M4.74321 0.592483C5.15766 0.212569 5.71361 -4.43655e-05 6.29246 6.94401e-09H14.6011C15.0836 6.94401e-09 15.6452 0.125931 16.1043 0.393724C16.5715 0.66531 17 1.13262 17 1.80172V9.19828C17 9.86738 16.5715 10.3339 16.1043 10.6063C15.65 10.8622 15.1307 10.9982 14.6011 11H6.29246C5.71361 11 5.15766 10.7874 4.74321 10.4075L0.426304 6.45055C0.291378 6.32687 0.184148 6.17905 0.110934 6.0158C0.0377187 5.85255 0 5.67717 0 5.5C0 5.32283 0.0377187 5.14745 0.110934 4.9842C0.184148 4.82095 0.291378 4.67313 0.426304 4.54945L4.74321 0.592483ZM10.1107 3.58069C10.0553 3.52479 9.98849 3.47995 9.91425 3.44886C9.84002 3.41776 9.75988 3.40104 9.67862 3.39969C9.59737 3.39834 9.51665 3.41239 9.4413 3.44101C9.36594 3.46963 9.29749 3.51222 9.24003 3.56625C9.18256 3.62028 9.13726 3.68463 9.10682 3.75548C9.07638 3.82632 9.06143 3.90221 9.06287 3.9786C9.0643 4.055 9.08209 4.13034 9.11516 4.20013C9.14824 4.26992 9.19593 4.33274 9.25539 4.38483L10.4415 5.5L9.25539 6.61517C9.19593 6.66726 9.14824 6.73007 9.11516 6.79987C9.08209 6.86966 9.0643 6.945 9.06287 7.0214C9.06143 7.09779 9.07638 7.17368 9.10682 7.24452C9.13726 7.31537 9.18256 7.37972 9.24003 7.43375C9.29749 7.48778 9.36594 7.53037 9.4413 7.55899C9.51665 7.58761 9.59737 7.60166 9.67862 7.60031C9.75988 7.59896 9.84002 7.58224 9.91425 7.55114C9.98849 7.52005 10.0553 7.47521 10.1107 7.41931L11.2968 6.30414L12.483 7.41931C12.5384 7.47521 12.6052 7.52005 12.6794 7.55114C12.7537 7.58224 12.8338 7.59896 12.9151 7.60031C12.9963 7.60166 13.077 7.58761 13.1524 7.55899C13.2277 7.53037 13.2962 7.48778 13.3537 7.43375C13.4111 7.37972 13.4564 7.31537 13.4869 7.24452C13.5173 7.17368 13.5322 7.09779 13.5308 7.0214C13.5294 6.945 13.5116 6.86966 13.4785 6.79987C13.4454 6.73007 13.3978 6.66726 13.3383 6.61517L12.1522 5.5L13.3383 4.38483C13.3978 4.33274 13.4454 4.26992 13.4785 4.20013C13.5116 4.13034 13.5294 4.055 13.5308 3.9786C13.5322 3.90221 13.5173 3.82632 13.4869 3.75548C13.4564 3.68463 13.4111 3.62028 13.3537 3.56625C13.2962 3.51222 13.2277 3.46963 13.1524 3.44101C13.077 3.41239 12.9963 3.39834 12.9151 3.39969C12.8338 3.40104 12.7537 3.41776 12.6794 3.44886C12.6052 3.47995 12.5384 3.52479 12.483 3.58069L11.2968 4.69586L10.1107 3.58069Z" fill="white"/>
</svg>
